<svg id="Capa_1" data-name="Capa 1" xmlns="http://www.w3.org/2000/svg" viewBox="0 0 1128.49 825.49"><defs><style>.cls-1{fill:#00bfe7;}.cls-2{fill:none;stroke:#00bfe7;stroke-miterlimit:10;stroke-width:2px;}</style></defs><text x="-321.52" y="-159.33"/><circle class="cls-1" cx="98.74" cy="274.74" r="13.45"/><circle class="cls-1" cx="381.74" cy="230.74" r="13.45"/><circle class="cls-1" cx="812.74" cy="502.74" r="13.45"/><circle class="cls-1" cx="1044.74" cy="171.74" r="13.45"/><circle class="cls-1" cx="265.74" cy="565.74" r="13.45"/><circle class="cls-1" cx="1023.74" cy="737.74" r="13.45"/><circle class="cls-1" cx="644.74" cy="97.74" r="13.45"/><circle class="cls-1" cx="587.74" cy="639.74" r="13.45"/><line class="cls-2" x1="98.48" y1="274.67" x2="381.48" y2="230.67"/><line class="cls-2" x1="98.48" y1="274.67" x2="265.48" y2="565.67"/><line class="cls-2" x1="644.48" y1="97.67" x2="381.48" y2="230.67"/><line class="cls-2" x1="644.48" y1="97.67" x2="1044.48" y2="171.67"/><line class="cls-2" x1="812.48" y1="502.67" x2="1044.48" y2="171.67"/><line class="cls-2" x1="265.48" y1="565.67" x2="587.48" y2="639.67"/><line class="cls-2" x1="587.48" y1="639.67" x2="812.48" y2="502.67"/><line class="cls-2" x1="812.48" y1="502.67" x2="1023.48" y2="737.67"/><line class="cls-2" x1="1023.48" y1="737.67" x2="587.48" y2="639.67"/><line class="cls-2" x1="98.48" y1="274.67" x2="812.48" y2="502.67"/><line class="cls-2" x1="98.48" y1="274.67" x2="587.48" y2="639.67"/><line class="cls-2" x1="381.48" y1="230.67" x2="265.48" y2="565.67"/><line class="cls-2" x1="1044.48" y1="171.67" x2="265.48" y2="565.67"/><line class="cls-2" x1="644.48" y1="97.67" x2="265.48" y2="565.67"/><line class="cls-2" x1="644.48" y1="97.67" x2="587.48" y2="639.67"/><line class="cls-2" x1="644.48" y1="97.67" x2="812.48" y2="502.67"/><line class="cls-2" x1="1044.48" y1="171.67" x2="1023.48" y2="737.67"/><line class="cls-2" x1="812.48" y1="502.67" x2="381.48" y2="230.67"/><line class="cls-2" x1="1023.48" y1="737.67" x2="381.48" y2="230.67"/><line class="cls-2" x1="1023.48" y1="737.67" x2="644.48" y2="97.67"/><circle class="cls-1" cx="414.74" cy="158.74" r="6.74"/><circle class="cls-1" cx="390.74" cy="299.74" r="6.74"/><circle class="cls-1" cx="285.74" cy="223.74" r="6.74"/><circle class="cls-1" cx="488.74" cy="223.74" r="6.74"/><circle class="cls-1" cx="693.74" cy="36.74" r="6.74"/><circle class="cls-1" cx="567.74" cy="104.74" r="6.74"/><circle class="cls-1" cx="567.74" cy="6.74" r="6.74"/><circle class="cls-1" cx="657.74" cy="200.74" r="6.74"/><circle class="cls-1" cx="756.74" cy="165.74" r="6.74"/><circle class="cls-1" cx="992.74" cy="116.74" r="6.74"/><circle class="cls-1" cx="928.74" cy="207.74" r="6.74"/><circle class="cls-1" cx="1023.74" cy="243.74" r="6.74"/><circle class="cls-1" cx="1121.74" cy="185.74" r="6.74"/><circle class="cls-1" cx="866.74" cy="519.74" r="6.74"/><circle class="cls-1" cx="782.74" cy="585.74" r="6.74"/><circle class="cls-1" cx="810.74" cy="431.74" r="6.74"/><circle class="cls-1" cx="495.74" cy="672.74" r="6.74"/><circle class="cls-1" cx="639.74" cy="760.74" r="6.74"/><circle class="cls-1" cx="554.74" cy="585.74" r="6.74"/><circle class="cls-1" cx="702.74" cy="616.74" r="6.74"/><circle class="cls-1" cx="950.74" cy="791.74" r="6.74"/><circle class="cls-1" cx="1108.74" cy="818.74" r="6.74"/><circle class="cls-1" cx="1073.74" cy="672.74" r="6.74"/><circle class="cls-1" cx="902.74" cy="688.74" r="6.74"/><circle class="cls-1" cx="1083.74" cy="750.74" r="6.74"/><circle class="cls-1" cx="181.74" cy="565.74" r="6.74"/><circle class="cls-1" cx="292.74" cy="632.74" r="6.74"/><circle class="cls-1" cx="109.74" cy="204.74" r="6.74"/><circle class="cls-1" cx="6.74" cy="243.74" r="6.74"/><circle class="cls-1" cx="45.74" cy="331.74" r="6.74"/><circle class="cls-1" cx="181.74" cy="366.74" r="6.74"/><circle class="cls-1" cx="207.74" cy="274.74" r="6.74"/><circle class="cls-1" cx="258.74" cy="512.74" r="6.74"/><circle class="cls-1" cx="407.74" cy="558.74" r="6.74"/><line class="cls-2" x1="98.48" y1="274.67" x2="109.48" y2="204.67"/><line class="cls-2" x1="98.48" y1="274.67" x2="6.48" y2="243.67"/><line class="cls-2" x1="98.48" y1="274.67" x2="45.48" y2="331.67"/><line class="cls-2" x1="98.48" y1="274.67" x2="181.48" y2="366.67"/><line class="cls-2" x1="207.48" y1="274.67" x2="98.48" y2="274.67"/><line class="cls-2" x1="285.48" y1="223.67" x2="381.48" y2="230.67"/><line class="cls-2" x1="414.48" y1="158.67" x2="381.48" y2="230.67"/><line class="cls-2" x1="488.48" y1="223.67" x2="381.48" y2="230.67"/><line class="cls-2" x1="381.48" y1="230.67" x2="390.48" y2="299.67"/><line class="cls-2" x1="657.48" y1="200.67" x2="644.48" y2="97.67"/><line class="cls-2" x1="644.48" y1="97.67" x2="567.48" y2="104.67"/><line class="cls-2" x1="567.48" y1="6.67" x2="644.48" y2="97.67"/><line class="cls-2" x1="693.48" y1="36.67" x2="644.48" y2="97.67"/><line class="cls-2" x1="756.48" y1="165.67" x2="644.48" y2="97.67"/><line class="cls-2" x1="1044.48" y1="171.67" x2="928.48" y2="207.67"/><line class="cls-2" x1="992.48" y1="116.67" x2="1044.48" y2="172.67"/><line class="cls-2" x1="1044.48" y1="171.67" x2="1121.48" y2="185.67"/><line class="cls-2" x1="1044.48" y1="171.67" x2="1023.48" y2="243.67"/><line class="cls-2" x1="810.48" y1="431.67" x2="812.48" y2="502.67"/><line class="cls-2" x1="866.48" y1="519.67" x2="812.48" y2="502.67"/><line class="cls-2" x1="782.48" y1="585.67" x2="812.48" y2="502.67"/><line class="cls-2" x1="1073.48" y1="672.67" x2="1023.48" y2="737.67"/><line class="cls-2" x1="1083.48" y1="750.67" x2="1023.48" y2="737.67"/><line class="cls-2" x1="1023.48" y1="737.67" x2="902.48" y2="688.67"/><line class="cls-2" x1="1023.48" y1="737.67" x2="950.48" y2="791.67"/><line class="cls-2" x1="1023.48" y1="737.67" x2="1108.48" y2="818.67"/><line class="cls-2" x1="587.48" y1="639.67" x2="702.48" y2="616.67"/><line class="cls-2" x1="554.48" y1="585.67" x2="588.48" y2="639.67"/><line class="cls-2" x1="587.48" y1="639.67" x2="495.48" y2="672.67"/><line class="cls-2" x1="588.48" y1="639.67" x2="639.48" y2="760.67"/><line class="cls-2" x1="265.48" y1="565.67" x2="407.48" y2="558.67"/><line class="cls-2" x1="265.48" y1="565.67" x2="181.48" y2="565.67"/><line class="cls-2" x1="265.48" y1="565.67" x2="292.48" y2="632.67"/><line class="cls-2" x1="258.48" y1="512.67" x2="265.48" y2="565.67"/><line class="cls-2" x1="207.48" y1="274.67" x2="109.48" y2="204.67"/><line class="cls-2" x1="265.48" y1="565.67" x2="45.48" y2="331.67"/><line class="cls-2" x1="181.48" y1="366.67" x2="381.48" y2="230.67"/><line class="cls-2" x1="207.48" y1="274.67" x2="285.48" y2="223.67"/><line class="cls-2" x1="414.48" y1="558.67" x2="554.48" y2="585.67"/><line class="cls-2" x1="702.48" y1="616.67" x2="782.48" y2="585.67"/><line class="cls-2" x1="639.48" y1="760.67" x2="782.48" y2="585.67"/><line class="cls-2" x1="902.48" y1="688.67" x2="812.48" y2="502.67"/><line class="cls-2" x1="1073.48" y1="672.67" x2="1044.48" y2="171.67"/><line class="cls-2" x1="812.48" y1="502.67" x2="1023.48" y2="243.67"/><line class="cls-2" x1="1023.48" y1="730.67" x2="1121.48" y2="185.67"/><line class="cls-2" x1="810.48" y1="431.67" x2="756.48" y2="165.67"/><line class="cls-2" x1="992.48" y1="116.67" x2="693.48" y2="36.67"/><line class="cls-2" x1="381.48" y1="230.67" x2="567.48" y2="104.67"/></svg>