<svg id="Capa_1" data-name="Capa 1" xmlns="http://www.w3.org/2000/svg" viewBox="0 0 1128.49 825.49"><defs><style>.cls-1{fill:#00bfe7;}.cls-2{fill:none;stroke:#00bfe7;stroke-miterlimit:10;stroke-width:2px;}</style></defs><text x="-321.52" y="-159.33"/><circle class="cls-1" cx="98.74" cy="274.74" r="13.45"/><circle class="cls-1" cx="381.74" cy="230.74" r="13.45"/><circle class="cls-1" cx="812.74" cy="502.74" r="13.45"/><circle class="cls-1" cx="1044.74" cy="171.74" r="13.45"/><circle class="cls-1" cx="265.74" cy="565.74" r="13.45"/><circle class="cls-1" cx="1023.74" cy="737.74" r="13.45"/><circle class="cls-1" cx="644.74" cy="97.74" r="13.45"/><circle class="cls-1" cx="587.74" cy="639.74" r="13.45"/><line class="cls-2" x1="98.48" y1="274.67" x2="381.48" y2="230.67"/><line class="cls-2" x1="98.48" y1="274.67" x2="265.48" y2="565.67"/><line class="cls-2" x1="644.48" y1="97.67" x2="381.48" y2="230.67"/><line class="cls-2" x1="644.48" y1="97.67" x2="1044.48" y2="171.67"/><line class="cls-2" x1="812.48" y1="502.67" x2="1044.48" y2="171.67"/><line class="cls-2" x1="265.48" y1="565.67" x2="587.48" y2="639.67"/><line class="cls-2" x1="587.48" y1="639.67" x2="812.48" y2="502.67"/><line class="cls-2" x1="812.48" y1="502.67" x2="1023.48" y2="737.67"/><line class="cls-2" x1="1023.48" y1="737.67" x2="587.48" y2="639.67"/><line class="cls-2" x1="98.48" y1="274.67" x2="812.48" y2="502.67"/><line class="cls-2" x1="98.48" y1="274.67" x2="587.48" y2="639.67"/><line class="cls-2" x1="381.48" y1="230.67" x2="265.48" y2="565.67"/><line class="cls-2" x1="1044.48" y1="171.67" x2="265.48" y2="565.67"/><line class="cls-2" x1="644.48" y1="97.67" x2="265.48" y2="565.67"/><line class="cls-2" x1="644.48" y1="97.67" x2="587.48" y2="639.67"/><line class="cls-2" x1="644.48" y1="97.67" x2="812.48" y2="502.67"/><line class="cls-2" x1="1044.48" y1="171.67" x2="1023.48" y2="737.67"/><line class="cls-2" x1="812.48" y1="502.67" x2="381.48" y2="230.67"/><line class="cls-2" x1="1023.48" y1="737.67" x2="381.48" y2="230.67"/><line class="cls-2" x1="1023.48" y1="737.67" x2="644.48" y2="97.67"/><circle class="cls-1" cx="414.74" cy="158.74" r="6.74"/><circle class="cls-1" cx="390.74" cy="299.74" r="6.74"/><circle class="cls-1" cx="285.74" cy="223.74" r="6.74"/><circle class="cls-1" cx="488.74" cy="223.74" r="6.74"/><circle class="cls-1" cx="693.74" cy="36.74" r="6.74"/><circle class="cls-1" cx="567.74" cy="104.74" r="6.74"/><circle class="cls-1" cx="567.74" cy="6.74" r="6.74"/><circle class="cls-1" cx="657.74" cy="200.74" r="6.74"/><circle class="cls-1" cx="756.74" cy="165.74" r="6.74"/><circle class="cls-1" cx="992.74" cy="116.74" r="6.74"/><circle class="cls-1" cx="928.74" cy="207.74" r="6.74"/><circle class="cls-1" cx="1023.74" cy="243.74" r="6.74"/><circle class="cls-1" cx="1121.74" cy="185.74" r="6.74"/><circle class="cls-1" cx="866.74" cy="519.74" r="6.74"/><circle class="cls-1" cx="782.74" cy="585.74" r="6.74"/><circle class="cls-1" cx="810.74" cy="431.74" r="6.74"/><circle class="cls-1" cx="495.74" cy="672.74" r="6.74"/><circle class="cls-1" cx="639.74" cy="760.74" r="6.74"/><circle class="cls-1" cx="554.74" cy="585.74" r="6.74"/><circle class="cls-1" cx="702.74" cy="616.74" r="6.74"/><circle class="cls-1" cx="950.74" cy="791.74" r="6.74"/><circle class="cls-1" cx="1108.74" cy="818.74" r="6.74"/><circle class="cls-1" cx="1073.74" cy="672.74" r="6.74"/><circle class="cls-1" cx="902.74" cy="688.74" r="6.74"/><circle class="cls-1" cx="1083.74" cy="750.74" r="6.74"/><circle class="cls-1" cx="181.74" cy="565.74" r="6.74"/><circle class="cls-1" cx="292.74" cy="632.74" r="6.74"/><circle class="cls-1" cx="109.74" cy="204.74" r="6.74"/><circle class="cls-1" cx="6.74" cy="243.74" r="6.74"/><circle class="cls-1" cx="45.74" cy="331.74" r="6.74"/><circle class="cls-1" cx="181.74" cy="366.74" r="6.74"/><circle class="cls-1" cx="207.74" cy="274.74" r="6.74"/><circle class="cls-1" cx="258.74" cy="512.74" r="6.74"/><circle class="cls-1" cx="407.74" cy="558.74" r="6.74"/><line class="cls-2" x1="98.48" y1="274.67" x2="109.48" y2="204.67"/><line class="cls-2" x1="98.48" y1="274.67" x2="6.48" y2="243.67"/><line class="cls-2" x1="98.48" y1="274.67" x2="45.48" y2="331.67"/><line class="cls-2" x1="98.48" y1="274.67" x2="181.48" y2="366.67"/><line class="cls-2" x1="207.48" y1="274.67" x2="98.48" y2="274.67"/><line class="cls-2" x1="285.48" y1="223.67" x2="381.48" y2="230.67"/><line class="cls-2" x1="414.48" y1="158.67" x2="381.48" y2="230.67"/><line class="cls-2" x1="488.48" y1="223.67" x2="381.48" y2="230.67"/><line class="cls-2" x1="381.48" y1="230.67" x2="390.48" y2="299.67"/><line class="cls-2" x1="657.48" y1="200.67" x2="644.48" y2="97.67"/><line class="cls-2" x1="644.48" y1="97.67" x2="567.48" y2="104.67"/><line class="cls-2" x1="567.48" y1="6.67" x2="644.48" y2="97.67"/><line class="cls-2" x1="693.48" y1="36.67" x2="644.48" y2="97.67"/><line class="cls-2" x1="756.48" y1="165.67" x2="644.48" y2="97.67"/><line class="cls-2" x1="1044.48" y1="171.67" x2="928.48" y2="207.67"/><line class="cls-2" x1="992.48" y1="116.67" x2="1044.48" y2="172.67"/><line class="cls-2" x1="1044.48" y1="171.67" x2="1121.48" y2="185.67"/><line class="cls-2" x1="1044.48" y1="171.67" x2="1023.48" y2="243.67"/><line class="cls-2" x1="810.48" y1="431.67" x2="812.48" y2="502.67"/><line class="cls-2" x1="866.48" y1="519.67" x2="812.48" y2="502.67"/><line class="cls-2" x1="782.48" y1="585.67" x2="812.48" y2="502.67"/><line class="cls-2" x1="1073.48" y1="672.67" x2="1023.48" y2="737.67"/><line class="cls-2" x1="1083.48" y1="750.67" x2="1023.48" y2="737.67"/><line class="cls-2" x1="1023.48" y1="737.67" x2="902.48" y2="688.67"/><line class="cls-2" x1="1023.48" y1="737.67" x2="950.48" y2="791.67"/><line class="cls-2" x1="1023.48" y1="737.67" x2="1108.48" y2="818.67"/><line class="cls-2" x1="587.48" y1="639.67" x2="702.48" y2="616.67"/><line class="cls-2" x1="554.48" y1="585.67" x2="588.48" y2="639.67"/><line class="cls-2" x1="587.48" y1="639.67" x2="495.48" y2="672.67"/><line class="cls-2" x1="588.48" y1="639.67" x2="639.48" y2="760.67"/><line class="cls-2" x1="265.48" y1="565.67" x2="407.48" y2="558.67"/><line class="cls-2" x1="265.48" y1="565.67" x2="181.48" y2="565.67"/><line class="cls-2" x1="265.48" y1="565.67" x2="292.48" y2="632.67"/><line class="cls-2" x1="258.48" y1="512.67" x2="265.48" y2="565.67"/><line class="cls-2" x1="207.48" y1="274.67" x2="109.48" y2="204.67"/><line class="cls-2" x1="265.48" y1="565.67" x2="45.48" y2="331.67"/><line class="cls-2" x1="181.48" y1="366.67" x2="381.48" y2="230.67"/><line class="cls-2" x1="207.48" y1="274.67" x2="285.48" y2="223.67"/><line class="cls-2" x1="414.48" y1="558.67" x2="554.48" y2="585.67"/><line class="cls-2" x1="702.48" y1="616.67" x2="782.48" y2="585.67"/><line class="cls-2" x1="639.48" y1="760.67" x2="782.48" y2="585.67"/><line class="cls-2" x1="902.48" y1="688.67" x2="812.48" y2="502.67"/><line class="cls-2" x1="1073.48" y1="672.67" x2="1044.48" y2="171.67"/><line class="cls-2" x1="812.48" y1="502.67" x2="1023.48" y2="243.67"/><line class="cls-2" x1="1023.48" y1="730.67" x2="1121.48" y2="185.67"/><line class="cls-2" x1="810.48" y1="431.67" x2="756.48" y2="165.67"/><line class="cls-2" x1="992.48" y1="116.67" x2="693.48" y2="36.67"/><line class="cls-2" x1="381.48" y1="230.67" x2="567.48" y2="104.67"/><path d="M737.54,579.41c6.78,3.9,18.4,6.61,27.72,6.61,15.45,0,23.17-8,23.17-19.12,0-12-7.64-18.21-21.91-27.33-23-14.14-31.75-31.79-31.75-47.09,0-27.07,18-49.48,53.25-49.48,11.18,0,21.6,3.11,26.48,6.05l-5.24,28.18a40.09,40.09,0,0,0-21.41-5.75c-14.06,0-20.79,8.49-20.79,17.41,0,10.1,5.09,15.43,23.19,26.34,22.35,13.42,30.47,30.48,30.47,48.16,0,31-22.74,51.11-55.6,51.11-13.6,0-26.68-3.41-32.31-6.76Z" transform="translate(-321.52 -159.33)"/><path d="M839.85,444.5h32.83V585.22h43.1V613H839.85Z" transform="translate(-321.52 -159.33)"/><path d="M964.55,458.31c.2,10.48-7.29,17.72-17.17,17.72-9,0-16.43-7.24-16.23-17.72-.2-11,7.58-17.93,16.67-17.93C957.26,440.38,964.55,447.29,964.55,458.31ZM931.73,613V490.63h32.83V613Z" transform="translate(-321.52 -159.33)"/><path d="M987.48,527.45c0-13.37-.56-25.16-1-36.82h28.28l1.68,14.16h.5a34.79,34.79,0,0,1,29.66-16.16c23.2,0,32.57,18.56,32.57,45.9V613h-32.83V536.42c0-10.3-2.41-20.2-12.06-20.2-5.41,0-10,3.77-12.29,11a35.26,35.26,0,0,0-1.68,11.29V613H987.48Z" transform="translate(-321.52 -159.33)"/><path d="M1134.56,544.24h.5c2.25-7,4.1-12.08,6.15-17L1157,490.63h35.41l-29.7,51.29L1194,613h-36.5l-17.36-50.21-5.58,10.57V613h-32.64V440h32.64Z" transform="translate(-321.52 -159.33)"/></svg>