<svg id="Capa_1" data-name="Capa 1" xmlns="http://www.w3.org/2000/svg" viewBox="0 0 461.19 174.5"><path d="M679.59,580.21c6.78,3.89,18.39,6.6,27.72,6.6,15.45,0,23.17-8,23.17-19.12,0-12-7.64-18.21-21.91-27.33-23-14.13-31.75-31.79-31.75-47.09,0-27.06,17.94-49.48,53.24-49.48,11.19,0,21.61,3.11,26.49,6.06L751.31,478a40.12,40.12,0,0,0-21.42-5.75c-14.06,0-20.78,8.5-20.78,17.41,0,10.1,5.08,15.43,23.19,26.34,22.35,13.42,30.47,30.49,30.47,48.16,0,31-22.75,51.11-55.61,51.11-13.6,0-26.67-3.41-32.3-6.76Z" transform="translate(-674.86 -440.79)"/><path d="M781.89,445.29h32.83V586h43.1v27.78H781.89Z" transform="translate(-674.86 -440.79)"/><path d="M906.6,459.1c.19,10.48-7.29,17.73-17.18,17.73-9,0-16.42-7.25-16.23-17.73-.19-11,7.59-17.93,16.68-17.93C899.31,441.17,906.6,448.08,906.6,459.1ZM873.77,613.79V491.43h32.84V613.79Z" transform="translate(-674.86 -440.79)"/><path d="M929.52,528.25c0-13.37-.55-25.17-1-36.82H956.8l1.69,14.15h.5a34.76,34.76,0,0,1,29.65-16.15c23.2,0,32.58,18.55,32.58,45.9v78.46H988.38V537.21c0-10.3-2.4-20.2-12.06-20.2-5.41,0-10,3.77-12.28,11a35,35,0,0,0-1.69,11.29v74.49H929.52Z" transform="translate(-674.86 -440.79)"/><path d="M1076.6,545h.5c2.25-7,4.11-12.09,6.16-17l15.79-36.59h35.41l-29.7,51.28L1136,613.79h-36.5l-17.36-50.21-5.58,10.57v39.64H1044v-173h32.63Z" transform="translate(-674.86 -440.79)"/></svg>